<svg xmlns="http://www.w3.org/2000/svg" viewBox="0 0 283.46 113.39"><defs><style>.cls-1{fill:#fff;}.cls-2{fill:#594295;}</style></defs><g id="Layer_2" data-name="Layer 2"><g id="Layer_1-2" data-name="Layer 1"><polygon class="cls-1" points="0 0 0 14.87 23.71 14.87 23.71 84.03 39.38 84.03 39.38 14.87 63.22 14.87 63.22 0 0 0"/><path class="cls-2" d="M247,85c-25.59,0-36.57-23.52-36.57-42.68S221.67.1,247,.1s36.44,23,36.44,42.26S272.6,85,247,85Zm19.91-42.68c0-9.8-4.83-29.28-19.91-29.28S227.1,32.56,227.1,42.25c0,10.43,4.83,29.8,19.92,29.8s19.79-19.26,19.79-29.69Z"/><path class="cls-1" d="M153.08,84V51.41c0-7.15.11-16-10.22-16-9.89,0-12.09,8.52-12.09,17.15V84H116.59v-59h14.18V32.9c4.06-6.58,9.56-9.42,16.92-9.42,14.4,0,19.57,9.31,19.57,23.28V84Z"/><path class="cls-1" d="M95.75,46.89c-1.13-7.48-7.38-13.41-15-13.41A15.56,15.56,0,0,0,65.21,46.77H95.64Zm12.52,22.59c-5,9.67-14.8,15.4-27,15.4H81C63.16,84.88,50.44,72.77,50.44,54c0-18.28,12-31,29.64-31,18.28,0,27.94,12.82,29.3,31.22a7.31,7.31,0,0,1,.11,1.54h-.11c0,.24-.46.36-.46.6H65.09c-.22,10.68,6.13,17.21,16,17.21,7.53,0,13-3.79,15.1-10.32Z"/><polygon class="cls-2" points="173 14.87 188.67 14.87 188.67 84.03 204.34 84.03 204.34 0 188.67 0 173 14.87"/><polygon class="cls-1" points="167.26 113.39 182.93 98.57 0 98.57 0 113.39 167.26 113.39"/><polygon class="cls-2" points="188.67 98.57 173 113.39 267.99 113.39 283.46 98.57 188.67 98.57"/></g></g></svg>